<?xml version="1.0" encoding="UTF-8"?> <svg xmlns="http://www.w3.org/2000/svg" width="100" height="19" viewBox="0 0 100 19" fill="none"><path d="M21.127 18.2617H10.1945C7.74674 18.2617 5.76243 16.3808 5.76243 14.0605V9.019C5.76243 6.69872 7.74674 4.81776 10.1945 4.81776H16.6949C19.1426 4.81776 21.127 6.69872 21.127 9.019V18.2617Z" fill="#1A55F9" fill-opacity="0.4"></path><path fill-rule="evenodd" clip-rule="evenodd" d="M10.1945 17.1414H19.9451V9.019C19.9451 7.31746 18.4899 5.93809 16.6949 5.93809H10.1945C8.39948 5.93809 6.94432 7.31746 6.94432 9.019V14.0605C6.94432 15.762 8.39948 17.1414 10.1945 17.1414ZM21.127 18.2617V9.019C21.127 6.69872 19.1426 4.81776 16.6949 4.81776H10.1945C7.74674 4.81776 5.76243 6.69872 5.76243 9.019V14.0605C5.76243 16.3808 7.74674 18.2617 10.1945 18.2617H21.127Z" fill="white"></path><path d="M0 0.975586H10.9324C13.3802 0.975586 15.3645 2.9909 15.3645 5.47691V10.8785C15.3645 13.3645 13.3802 15.3798 10.9324 15.3798H4.43207C1.98431 15.3798 0 13.3645 0 10.8785V0.975586Z" fill="#1A55F9"></path><path fill-rule="evenodd" clip-rule="evenodd" d="M10.9324 2.17594H1.18189V10.8785C1.18189 12.7016 2.63704 14.1795 4.43207 14.1795H10.9324C12.7275 14.1795 14.1826 12.7016 14.1826 10.8785V5.47691C14.1826 3.65384 12.7275 2.17594 10.9324 2.17594ZM0 0.975586V10.8785C0 13.3645 1.98431 15.3798 4.43207 15.3798H10.9324C13.3802 15.3798 15.3645 13.3645 15.3645 10.8785V5.47691C15.3645 2.9909 13.3802 0.975586 10.9324 0.975586H0Z" fill="white"></path><path d="M34.9612 15.4683H42.0285V18.7445H30.4214V15.7023L37.4418 5.59292H30.4214V2.31673H42.0285V5.35891L34.9612 15.4683Z" fill="#1A55F9"></path><path d="M53.418 10.32C54.3696 10.5228 55.1341 10.9986 55.7113 11.7475C56.2885 12.4807 56.5772 13.3232 56.5772 14.2748C56.5772 15.6477 56.0935 16.7398 55.1263 17.551C54.1746 18.3467 52.8407 18.7445 51.1246 18.7445H43.4724V2.31673H50.8672C52.5365 2.31673 53.8392 2.69896 54.7752 3.4634C55.7269 4.22784 56.2027 5.2653 56.2027 6.57578C56.2027 7.54304 55.9453 8.34648 55.4305 8.98612C54.9313 9.62576 54.2604 10.0704 53.418 10.32ZM47.474 8.96272H50.095C50.7502 8.96272 51.2494 8.82231 51.5927 8.54149C51.9515 8.24508 52.1309 7.81605 52.1309 7.25442C52.1309 6.69279 51.9515 6.26376 51.5927 5.96735C51.2494 5.67093 50.7502 5.52272 50.095 5.52272H47.474V8.96272ZM50.4226 15.5151C51.0934 15.5151 51.6083 15.3669 51.9671 15.0705C52.3415 14.7585 52.5287 14.3138 52.5287 13.7366C52.5287 13.1594 52.3337 12.7069 51.9437 12.3793C51.5693 12.0517 51.0466 11.8879 50.3758 11.8879H47.474V15.5151H50.4226Z" fill="#1A55F9"></path><path d="M61.7297 7.86285C62.1977 7.14521 62.7827 6.58358 63.4848 6.17796C64.1868 5.75673 64.9668 5.54612 65.8249 5.54612V9.78177H64.725C63.7266 9.78177 62.9777 10.0002 62.4785 10.437C61.9793 10.8582 61.7297 11.6071 61.7297 12.6835V18.7445H57.728V5.68653H61.7297V7.86285Z" fill="#1A55F9"></path><path d="M65.7719 12.1921C65.7719 10.8504 66.0215 9.67256 66.5207 8.6585C67.0355 7.64444 67.7298 6.8644 68.6034 6.31837C69.4771 5.77233 70.4521 5.49932 71.5286 5.49932C72.4491 5.49932 73.2525 5.68653 73.9389 6.06095C74.641 6.43537 75.1792 6.9268 75.5536 7.53524V5.68653H79.5553V18.7445H75.5536V16.8958C75.1636 17.5042 74.6176 17.9956 73.9155 18.3701C73.2291 18.7445 72.4257 18.9317 71.5052 18.9317C70.4443 18.9317 69.4771 18.6587 68.6034 18.1126C67.7298 17.551 67.0355 16.7632 66.5207 15.7491C66.0215 14.7194 65.7719 13.5338 65.7719 12.1921ZM75.5536 12.2155C75.5536 11.217 75.2728 10.4292 74.7112 9.85197C74.1652 9.27474 73.4943 8.98612 72.6987 8.98612C71.903 8.98612 71.2244 9.27474 70.6628 9.85197C70.1167 10.4136 69.8437 11.1936 69.8437 12.1921C69.8437 13.1906 70.1167 13.9862 70.6628 14.579C71.2244 15.1563 71.903 15.4449 72.6987 15.4449C73.4943 15.4449 74.1652 15.1563 74.7112 14.579C75.2728 14.0018 75.5536 13.214 75.5536 12.2155Z" fill="#1A55F9"></path><path d="M83.2927 4.32925C82.5907 4.32925 82.0134 4.12644 81.561 3.72082C81.1242 3.29959 80.9058 2.78476 80.9058 2.17633C80.9058 1.55229 81.1242 1.03746 81.561 0.631837C82.0134 0.210612 82.5907 0 83.2927 0C83.9792 0 84.5408 0.210612 84.9776 0.631837C85.43 1.03746 85.6563 1.55229 85.6563 2.17633C85.6563 2.78476 85.43 3.29959 84.9776 3.72082C84.5408 4.12644 83.9792 4.32925 83.2927 4.32925ZM85.2818 5.68653V18.7445H81.2802V5.68653H85.2818Z" fill="#1A55F9"></path><path d="M94.9682 5.54612C96.497 5.54612 97.7139 6.04535 98.6188 7.04381C99.5392 8.02666 99.9995 9.38394 99.9995 11.1156V18.7445H96.0212V11.6539C96.0212 10.7802 95.795 10.1016 95.3426 9.61796C94.8902 9.13433 94.2817 8.89251 93.5173 8.89251C92.7528 8.89251 92.1444 9.13433 91.692 9.61796C91.2395 10.1016 91.0133 10.7802 91.0133 11.6539V18.7445H87.0117V5.68653H91.0133V7.41823C91.419 6.841 91.965 6.38857 92.6514 6.06095C93.3379 5.71773 94.1101 5.54612 94.9682 5.54612Z" fill="#1A55F9"></path></svg> 